<svg width="1600" height="900" viewBox="0 0 1600 900" fill="none" xmlns="http://www.w3.org/2000/svg">
  <defs>
    <linearGradient id="bg" x1="0" y1="0" x2="1600" y2="900" gradientUnits="userSpaceOnUse">
      <stop offset="0" stop-color="#07111f"/>
      <stop offset="0.48" stop-color="#101b3a"/>
      <stop offset="1" stop-color="#2a1458"/>
    </linearGradient>
    <radialGradient id="blueGlow" cx="0" cy="0" r="1" gradientUnits="userSpaceOnUse" gradientTransform="translate(390 210) rotate(48) scale(520 360)">
      <stop stop-color="#3b82f6" stop-opacity="0.42"/>
      <stop offset="1" stop-color="#3b82f6" stop-opacity="0"/>
    </radialGradient>
    <radialGradient id="purpleGlow" cx="0" cy="0" r="1" gradientUnits="userSpaceOnUse" gradientTransform="translate(1180 700) rotate(30) scale(540 300)">
      <stop stop-color="#8b5cf6" stop-opacity="0.45"/>
      <stop offset="1" stop-color="#8b5cf6" stop-opacity="0"/>
    </radialGradient>
    <linearGradient id="card" x1="230" y1="186" x2="1400" y2="735" gradientUnits="userSpaceOnUse">
      <stop stop-color="#101b31" stop-opacity="0.9"/>
      <stop offset="1" stop-color="#151033" stop-opacity="0.78"/>
    </linearGradient>
    <linearGradient id="line" x1="690" y1="640" x2="1370" y2="300" gradientUnits="userSpaceOnUse">
      <stop stop-color="#22c55e"/>
      <stop offset="0.45" stop-color="#60a5fa"/>
      <stop offset="1" stop-color="#a78bfa"/>
    </linearGradient>
    <filter id="shadow" x="160" y="140" width="1280" height="680" filterUnits="userSpaceOnUse" color-interpolation-filters="sRGB">
      <feDropShadow dx="0" dy="28" stdDeviation="36" flood-color="#020617" flood-opacity="0.42"/>
    </filter>
  </defs>

  <rect width="1600" height="900" fill="url(#bg)"/>
  <rect width="1600" height="900" fill="url(#blueGlow)"/>
  <rect width="1600" height="900" fill="url(#purpleGlow)"/>

  <g opacity="0.14">
    <path d="M0 720 C260 620 350 790 610 690 C830 606 850 420 1110 392 C1318 370 1402 470 1600 390" stroke="#cbd5e1" stroke-width="2"/>
    <path d="M0 180 C240 270 390 110 620 220 C830 320 942 190 1140 240 C1330 288 1420 210 1600 270" stroke="#93c5fd" stroke-width="2"/>
  </g>

  <g filter="url(#shadow)">
    <rect x="210" y="170" width="1180" height="560" rx="38" fill="url(#card)" stroke="#334155" stroke-opacity="0.75"/>
    <rect x="248" y="208" width="300" height="484" rx="28" fill="#08111f" fill-opacity="0.72" stroke="#1e293b"/>
    <rect x="586" y="208" width="766" height="484" rx="28" fill="#0b1220" fill-opacity="0.46" stroke="#1e293b"/>
  </g>

  <g transform="translate(286 250)">
    <path d="M20 130 Q38 64 84 76 Q104 20 124 20 Q144 20 168 76 Q214 64 232 130 Q232 210 126 232 Q20 210 20 130Z" stroke="#60a5fa" stroke-width="10" stroke-linecap="round" stroke-linejoin="round" fill="#0f172a"/>
    <circle cx="92" cy="136" r="12" fill="#93c5fd"/>
    <circle cx="160" cy="136" r="12" fill="#93c5fd"/>
    <path d="M38 64 L18 18M56 54 L48 10M214 64 L234 18M196 54 L204 10" stroke="#60a5fa" stroke-width="9" stroke-linecap="round"/>
    <text x="0" y="330" fill="#f8fafc" font-family="Inter, Arial, sans-serif" font-size="92" font-weight="800" letter-spacing="-4">L¥NX</text>
    <text x="4" y="380" fill="#93c5fd" font-family="Inter, Arial, sans-serif" font-size="34" font-weight="700">灵猞 · 个人投资驾驶舱</text>
  </g>

  <g transform="translate(650 275)">
    <text x="0" y="0" fill="#e2e8f0" font-family="Inter, Arial, sans-serif" font-size="50" font-weight="800">把投资过程串成闭环</text>
    <text x="0" y="70" fill="#94a3b8" font-family="Inter, Arial, sans-serif" font-size="28" font-weight="500">看盘 · 记账 · 策略 Agent · 操盘计划 · 执行复盘</text>

    <g transform="translate(0 128)">
      <rect x="0" y="0" width="620" height="250" rx="22" fill="#020617" fill-opacity="0.36" stroke="#334155"/>
      <path d="M34 188 L126 130 L210 154 L302 82 L396 112 L500 58 L584 76" stroke="url(#line)" stroke-width="8" stroke-linecap="round" stroke-linejoin="round"/>
      <path d="M34 188 L126 130 L210 154 L302 82 L396 112 L500 58 L584 76" stroke="#ffffff" stroke-opacity="0.2" stroke-width="2" stroke-linecap="round" stroke-linejoin="round"/>
      <circle cx="126" cy="130" r="9" fill="#22c55e"/>
      <circle cx="302" cy="82" r="9" fill="#60a5fa"/>
      <circle cx="500" cy="58" r="9" fill="#a78bfa"/>
      <line x1="34" y1="208" x2="584" y2="208" stroke="#334155" stroke-width="2"/>
      <line x1="34" y1="36" x2="34" y2="208" stroke="#334155" stroke-width="2"/>
    </g>

    <g transform="translate(0 420)" font-family="Inter, Arial, sans-serif" font-size="24" font-weight="700">
      <rect x="0" y="0" width="126" height="46" rx="23" fill="#1d4ed8" fill-opacity="0.26" stroke="#3b82f6"/>
      <text x="28" y="31" fill="#bfdbfe">资产</text>
      <rect x="146" y="0" width="126" height="46" rx="23" fill="#16a34a" fill-opacity="0.22" stroke="#22c55e"/>
      <text x="174" y="31" fill="#bbf7d0">行情</text>
      <rect x="292" y="0" width="158" height="46" rx="23" fill="#7c3aed" fill-opacity="0.24" stroke="#8b5cf6"/>
      <text x="320" y="31" fill="#ddd6fe">策略计划</text>
      <rect x="470" y="0" width="126" height="46" rx="23" fill="#f59e0b" fill-opacity="0.18" stroke="#fbbf24"/>
      <text x="498" y="31" fill="#fde68a">复盘</text>
    </g>
  </g>

  <text x="210" y="805" fill="#64748b" font-family="Inter, Arial, sans-serif" font-size="24">Source available · self-hosted · investment tracking and strategy assistant</text>
</svg>

